<svg width="111" height="111" viewBox="0 0 111 111" fill="none" xmlns="http://www.w3.org/2000/svg">
<mask id="mask0_458_1651" style="mask-type:alpha" maskUnits="userSpaceOnUse" x="0" y="0" width="111" height="111">
<path d="M87.0792 57.9249C87.0792 70.4124 81.2604 80.6626 73.8546 81.7032C71.8818 83.5243 69.3669 84.6083 66.6309 84.6083C65.122 84.6083 63.6782 84.2787 62.36 83.6804C60.4479 85.2847 58.0935 86.2299 55.5396 86.2299C52.9857 86.2299 50.6313 85.2847 48.7192 83.6804C47.4011 84.2787 45.9572 84.6083 44.4483 84.6083C41.7123 84.6083 39.2018 83.5243 37.2246 81.7032C29.8188 80.6626 24 70.4167 24 57.9249C24 45.4331 29.8102 35.1959 37.2159 34.1466C39.1931 32.3255 41.708 31.2329 44.4483 31.2329C46.0396 31.2329 47.5528 31.5971 48.9273 32.2605C50.7961 30.7603 53.0811 29.8844 55.5396 29.8844C57.9981 29.8844 60.2788 30.7646 62.1519 32.2605C63.5264 31.5971 65.044 31.2329 66.6309 31.2329C69.3713 31.2329 71.8818 32.3212 73.8633 34.1466C81.2691 35.1959 87.0792 45.4374 87.0792 57.9249Z" stroke="url(#paint0_linear_458_1651)" stroke-width="3" stroke-miterlimit="10"/>
<path d="M31.0396 42.6524C31.9978 38.3685 34.8552 34.7566 38.2199 32.038L38.2589 32.0033L38.2806 31.986L38.2892 31.9773H38.2936V31.973C38.6318 32.4456 37.522 30.7622 39.0396 32.8738C40.5528 34.9854 39.4601 33.4591 39.794 33.9317C39.7506 33.9577 39.6984 34.1583 39.6594 34.1843C36.6244 36.3667 33.684 39.396 31.0396 42.648V42.6524Z" fill="white"/>
<path d="M78.9842 41.8738C76.5084 38.6478 73.7594 35.6517 70.3644 33.41C70.3254 33.384 70.3002 33.3141 70.2612 33.2881C70.5994 32.8155 69.5024 34.3417 71.0156 32.2301C72.5332 30.1185 71.4362 31.6448 71.7787 31.1765C71.8004 31.1938 71.8351 31.2199 71.8568 31.2415C75.2215 33.9602 78.0789 37.572 79.0371 41.8559L78.9842 41.8738Z" fill="white"/>
<path d="M44.2395 38.7072C44.8986 36.2227 46.0997 33.9203 47.6606 31.8738L49.4904 33.7252C47.5392 35.1474 45.8785 36.9295 44.2395 38.7072Z" fill="white"/>
<path d="M66.804 38.6935C65.165 36.9158 63.5043 35.1337 61.5531 33.7115L63.3693 31.8738C64.9303 33.9203 66.1449 36.209 66.804 38.6935Z" fill="white"/>
<path d="M32.5439 73.9419C35.0197 77.1678 37.7687 80.1639 41.1637 82.4056C41.2028 82.4316 41.2765 82.4793 41.3155 82.5053C40.9773 82.978 42.0743 81.4517 40.561 83.5633C39.0435 85.6749 40.1405 84.1487 39.7979 84.6169C39.7762 84.5996 39.7415 84.5736 39.7199 84.5519C36.3552 81.8333 33.4978 78.2214 32.5396 73.9375L32.5439 73.9419Z" fill="white"/>
<path d="M79.6864 73.2738C78.6891 77.3842 76.0009 81.4644 72.4324 83.7841C72.415 83.7928 72.3673 83.8274 72.3457 83.8361C72.0421 83.4155 73.0177 84.777 71.6649 82.8952C70.3121 81.0134 71.292 82.3706 70.9929 81.95C71.0666 81.8806 71.1966 81.7765 71.279 81.7072C71.795 81.2692 72.7663 80.4541 73.2909 80.0075C75.7277 78.065 77.8003 75.7799 79.6907 73.2738H79.6864Z" fill="white"/>
<path d="M43.8594 77.0641C45.4984 78.8419 47.1591 80.6239 49.1103 82.0461L47.4688 83.7072C45.9078 81.6606 44.5185 79.5486 43.8594 77.0641Z" fill="white"/>
<path d="M66.7904 76.9738C66.1313 79.4583 65.6005 82.2272 64.0396 84.2738L61.5396 82.3738C63.4907 80.9516 65.1514 78.7515 66.7904 76.9738Z" fill="white"/>
<path d="M37.8793 44.6873L51.4812 51.2432C51.4812 51.2432 47.6005 55.926 43.0087 53.7407C38.417 51.5554 37.8793 44.6873 37.8793 44.6873Z" stroke="url(#paint1_linear_458_1651)" stroke-width="2" stroke-miterlimit="10"/>
<path d="M68.0705 53.7407C63.4787 55.926 59.598 51.2432 59.598 51.2432L73.1999 44.6873C73.1999 44.6873 72.6666 51.5554 68.0705 53.7407Z" stroke="url(#paint2_linear_458_1651)" stroke-width="2" stroke-miterlimit="10"/>
<path d="M55.5396 70.0265L60.2571 74.4882L68.465 68.3788L70.9192 71.3663L79.1575 57.1401L70.9192 62.9372L68.465 60.0842L60.2571 66.1025L55.5396 61.6885L50.8221 66.1025L42.6142 60.0842L40.16 62.9372L31.9218 57.1401L40.16 71.3663L42.6142 68.3788L50.8221 74.4882L55.5396 70.0265Z" stroke="url(#paint3_linear_458_1651)" stroke-width="2" stroke-miterlimit="10"/>
<path d="M53.2199 30.1532C53.0768 29.1299 52.9684 27.6991 53.1592 26.0124C53.3847 24.0222 53.8573 19.8814 56.2377 19.1226C58.2149 18.4939 60.3742 20.4754 60.6517 20.7269C61.0246 21.0694 61.5275 21.542 61.4538 22.0667C61.3671 22.6737 60.6083 23.1247 59.7498 23.8054C59.7498 23.8054 58.7525 24.5555 58.0978 26.0124C57.4257 27.517 57.4561 28.8785 57.6425 29.7587" stroke="url(#paint4_linear_458_1651)" stroke-width="3" stroke-miterlimit="10"/>
<path d="M55.5 102.502C81.4582 102.502 102.502 81.4582 102.502 55.5C102.502 29.5418 81.4582 8.49844 55.5 8.49844C29.5417 8.49844 8.49841 29.5418 8.49841 55.5C8.49841 81.4582 29.5417 102.502 55.5 102.502Z" stroke="url(#paint5_linear_458_1651)" stroke-width="3" stroke-miterlimit="10"/>
</mask>
<g mask="url(#mask0_458_1651)">
<rect x="-8" y="1" width="119" height="132" fill="url(#paint6_linear_458_1651)"/>
</g>
<defs>
<linearGradient id="paint0_linear_458_1651" x1="55.5396" y1="29.8844" x2="55.5396" y2="86.2299" gradientUnits="userSpaceOnUse">
<stop stop-color="white"/>
<stop offset="1" stop-color="#999999"/>
</linearGradient>
<linearGradient id="paint1_linear_458_1651" x1="44.6803" y1="44.6873" x2="44.6803" y2="54.3218" gradientUnits="userSpaceOnUse">
<stop stop-color="white"/>
<stop offset="1" stop-color="#999999"/>
</linearGradient>
<linearGradient id="paint2_linear_458_1651" x1="66.399" y1="44.6873" x2="66.399" y2="54.3218" gradientUnits="userSpaceOnUse">
<stop stop-color="white"/>
<stop offset="1" stop-color="#999999"/>
</linearGradient>
<linearGradient id="paint3_linear_458_1651" x1="55.5396" y1="57.1401" x2="55.5396" y2="74.4882" gradientUnits="userSpaceOnUse">
<stop stop-color="white"/>
<stop offset="1" stop-color="#999999"/>
</linearGradient>
<linearGradient id="paint4_linear_458_1651" x1="57.2589" y1="19" x2="57.2589" y2="30.1532" gradientUnits="userSpaceOnUse">
<stop stop-color="white"/>
<stop offset="1" stop-color="#999999"/>
</linearGradient>
<linearGradient id="paint5_linear_458_1651" x1="55.5" y1="8.49844" x2="55.5" y2="102.502" gradientUnits="userSpaceOnUse">
<stop stop-color="white"/>
<stop offset="1" stop-color="#999999"/>
</linearGradient>
<linearGradient id="paint6_linear_458_1651" x1="51.5" y1="1" x2="51.5" y2="133" gradientUnits="userSpaceOnUse">
<stop offset="0.153846" stop-color="#6D8DB6"/>
<stop offset="0.451923" stop-color="#5887C1"/>
<stop offset="1" stop-color="#DECBAD"/>
</linearGradient>
</defs>
</svg>
